<?xml version="1.0" encoding="UTF-8"?>
<svg width="232px" height="389px" viewBox="0 0 232 389" version="1.1" xmlns="http://www.w3.org/2000/svg" xmlns:xlink="http://www.w3.org/1999/xlink">
    <!-- Generator: Sketch 42 (36781) - http://www.bohemiancoding.com/sketch -->
    <title>logo-text-top-blk</title>
    <desc>Created with Sketch.</desc>
    <defs></defs>
    <g id="Page-2" stroke="none" stroke-width="1" fill="none" fill-rule="evenodd">
        <g id="logo-text-top-blk" transform="translate(-2.000000, -6.000000)">
            <path d="M130.908,227.821 C126.908,226.696 123.076,225.618 118.553,224.347 C119.16,226.308 119.16,228.19 120.087,228.962 C123.283,231.627 127.298,231.11 130.908,227.821 Z M117.715,216.952 C117.757,221.311 117.831,221.441 121.389,222.388 C124.693,223.268 128.162,223.738 131.278,225.052 C134.353,226.349 135.518,224.53 137.349,222.533 C130.682,220.638 124.305,218.825 117.715,216.952 Z M116.309,209.439 C116.335,213.817 116.345,213.777 120.144,214.787 C125.52,216.216 130.893,217.662 136.24,219.194 C139.774,220.207 139.753,220.28 141.477,216.586 C133.084,214.202 124.725,211.829 116.309,209.439 Z M114.847,201.916 C114.911,206.157 114.912,206.156 118.406,207.141 C125.684,209.193 132.956,211.266 140.242,213.289 C143.625,214.228 144.043,213.893 144.411,210.269 C134.629,207.505 124.84,204.739 114.847,201.916 Z M113.533,194.371 C113.37,194.536 113.206,194.7 113.042,194.865 C114.153,196.202 112.729,198.628 115.591,199.313 C120.146,200.402 124.624,201.815 129.138,203.076 C134.628,204.609 140.121,206.127 145.749,207.689 C146.171,206.324 146.534,205.151 146.946,203.818 C135.642,200.622 124.588,197.496 113.533,194.371 Z M112.023,186.766 C111.876,190.783 112.122,191.149 115.513,192.088 C120.649,193.51 125.79,194.915 130.92,196.357 C136.331,197.879 141.733,199.435 147.43,201.059 C147.602,199.452 147.749,198.083 147.893,196.747 C135.749,193.368 123.902,190.071 112.023,186.766 Z M146.451,179.09 C145.989,177.403 145.769,176.233 145.328,175.154 C145.135,174.682 144.546,174.198 144.04,174.053 C137.469,172.156 130.881,170.316 124.296,168.47 C118.818,166.934 113.338,165.41 107.801,163.865 C107.862,167.979 108.066,168.239 111.532,169.203 C118.205,171.059 124.877,172.92 131.542,174.805 C136.347,176.163 141.14,177.562 146.451,179.09 Z M147.994,189.599 C135.167,186.032 122.844,182.605 110.347,179.13 C111.286,184.362 110.223,183.262 114.693,184.547 C121.728,186.569 128.802,188.455 135.849,190.438 C139.805,191.551 143.739,192.744 147.994,193.993 L147.994,189.599 Z M146.992,181.086 C145.746,181.179 144.766,181.502 143.939,181.274 C135.51,178.947 127.109,176.517 118.691,174.145 C115.535,173.255 112.356,172.441 109.08,171.563 C109.789,175.961 109.791,175.952 113.447,176.975 C121.332,179.182 129.216,181.39 137.096,183.615 C140.575,184.597 144.042,185.621 147.862,186.727 C147.491,184.319 147.194,182.397 146.992,181.086 Z M143.537,170.942 C136.128,153.151 118.472,142.978 104.14,146.062 C104.982,150.442 105.753,154.841 106.736,159.192 C106.906,159.942 107.874,160.847 108.65,161.074 C118.141,163.841 127.665,166.496 137.182,169.177 C139.155,169.733 141.132,170.275 143.537,170.942 Z M130.586,151.754 C129.241,145.125 128.008,139.05 126.715,132.677 C129.735,132.093 132.735,131.512 135.981,130.883 C136.689,134.907 137.396,138.88 138.085,142.856 C139.257,149.614 140.144,156.439 141.697,163.108 C142.493,166.528 144.431,169.691 145.978,172.91 C146.132,173.231 147.192,173.311 147.772,173.199 C150.572,172.66 153.351,172.016 156.449,171.341 C159.536,191.954 162.578,212.261 165.644,232.731 C162.305,233.531 159.064,234.308 155.587,235.141 C153.562,223.216 151.56,211.419 149.472,199.121 C147.633,202.875 148.829,206.146 149.362,209.324 C153.11,231.674 156.916,254.015 160.801,276.341 C163.194,290.095 165.803,303.81 168.235,317.557 C171.681,337.028 175.047,356.514 178.463,375.99 C179.331,380.942 180.28,385.881 181.15,390.833 C181.363,392.049 181.411,393.294 181.536,394.526 C181.249,394.544 180.963,394.562 180.676,394.58 C168.324,335.323 155.973,276.066 143.547,216.452 C137.859,225.837 130.217,232.289 119.3,234.346 C113.744,204.495 108.216,174.793 102.618,144.718 C112.991,142.81 122.025,145.414 130.586,151.754 Z" id="Fill-4" fill="#000000"></path>
            <path d="M58.527,198.519 C57.377,197.743 56.395,197.445 56.081,196.814 C52.076,188.762 49.03,180.344 48.257,171.355 C47.965,167.961 48.553,164.308 49.571,161.032 C50.688,157.434 53.522,155.12 57.538,154.728 C60.873,154.403 64.212,154.113 67.534,153.684 C68.265,153.59 68.97,153.037 69.614,152.591 C70.678,151.853 71.576,150.613 72.732,150.314 C77.977,148.956 83.285,147.84 88.579,146.676 C89.171,146.545 89.817,146.658 90.568,146.658 C93.713,167.052 96.84,187.33 100.006,207.856 C94.972,208.883 90.242,209.942 85.473,210.781 C83.172,211.185 81.402,209.67 80.783,206.977 C79.085,199.595 77.459,192.196 75.815,184.802 C73.982,176.557 72.125,168.317 70.366,160.056 C70.02,158.432 69.266,158.108 67.712,158.179 C56.863,158.677 53.823,165.226 54.949,175.971 C55.331,179.611 56.174,183.201 56.756,186.822 C57.336,190.43 57.853,194.048 58.527,198.519" id="Fill-5" fill="#000000"></path>
            <path d="M184.764,249.981 C184.622,250.124 184.48,250.267 184.339,250.409 C185.419,252.067 184.088,254.57 186.765,255.76 C190.607,257.468 193.382,255.649 196.78,253.328 C192.416,252.112 188.59,251.047 184.764,249.981 Z M202.903,247.735 C196.304,245.899 189.825,244.096 183.228,242.26 C183.455,246.629 183.459,246.613 187.111,247.612 C190.098,248.429 193.177,249.037 196.025,250.203 C199.026,251.431 201.128,250.93 202.903,247.735 Z M181.843,234.612 C181.952,238.883 181.967,238.83 185.824,239.897 C191.19,241.382 196.54,242.929 201.881,244.504 C205.53,245.58 205.817,245.475 207.276,241.667 C198.849,239.329 190.442,236.997 181.843,234.612 Z M210.457,235.488 C200.45,232.631 190.499,229.791 180.477,226.929 C180.382,231.191 180.383,231.186 184.113,232.241 C185.795,232.717 187.468,233.224 189.149,233.702 C195.698,235.566 202.248,237.425 208.877,239.308 C209.354,238.391 209.781,237.638 210.14,236.854 C210.299,236.505 210.322,236.093 210.457,235.488 Z M212.769,228.824 C201.327,225.636 190.167,222.527 178.968,219.406 C179.139,223.734 179.154,223.679 182.836,224.713 C188.892,226.413 194.918,228.22 200.971,229.929 C204.47,230.916 207.999,231.801 211.648,232.768 C212.046,231.366 212.366,230.239 212.769,228.824 Z M213.087,227.012 C214.059,222.916 214.052,222.939 210.424,221.951 C206.289,220.824 202.172,219.635 198.04,218.5 C191.267,216.641 184.489,214.803 177.65,212.939 C177.719,217.073 177.72,217.068 181.242,218.048 C183.315,218.624 185.381,219.225 187.452,219.808 C195.938,222.194 204.424,224.578 213.087,227.012 Z M176.313,204.354 C176.095,208.333 176.339,208.608 179.787,209.544 C187.465,211.627 195.122,213.787 202.794,215.891 C206.434,216.89 210.09,217.833 213.91,218.847 L213.91,214.784 C201.211,211.261 188.77,207.81 176.313,204.354 Z M174.462,196.711 C175.29,198.831 174.279,201.076 177.135,201.823 C185.525,204.017 193.863,206.412 202.23,208.692 C205.891,209.69 209.576,210.6 213.607,211.642 C213.25,209.458 212.95,207.62 212.709,206.139 C211.83,206.352 211.068,206.802 210.472,206.642 C202.712,204.55 194.977,202.367 187.233,200.218 C183.132,199.08 179.024,197.963 174.462,196.711 Z M173.386,189.115 C173.064,192.618 174.509,193.935 177.491,194.687 C185.52,196.71 193.445,199.146 201.423,201.374 C204.847,202.331 208.301,203.18 211.831,204.101 C211.291,199.758 211.282,199.79 207.681,198.791 C201.081,196.961 194.491,195.094 187.9,193.234 C183.1,191.879 178.303,190.511 173.386,189.115 Z M209.246,196.315 C202.522,179.918 185.48,168.04 170.029,170.921 C169.994,171.203 169.879,171.524 169.931,171.814 C170.701,176.134 171.421,180.466 172.355,184.751 C172.503,185.431 173.549,186.182 174.326,186.415 C179.976,188.108 185.663,189.681 191.341,191.283 C197.157,192.923 202.976,194.553 209.246,196.315 Z" id="Fill-6" fill="#1A1919"></path>
            <path d="M92.224,145.116 C95.01,144.601 97.717,144.101 100.577,143.572 C106.267,174.147 111.923,204.531 117.612,235.097 C113.954,235.799 110.383,236.484 106.393,237.249 C101.693,206.692 96.986,176.086 92.224,145.116" id="Fill-7" fill="#000000"></path>
            <path d="M158.088,170.154 C160.872,169.596 163.501,169.07 166.217,168.526 C171.89,199.217 177.525,229.694 183.203,260.411 C179.546,261.2 175.868,261.993 171.998,262.828 C167.357,231.908 162.743,201.168 158.088,170.154" id="Fill-8" fill="#000000"></path>
            <path d="M103.947,234.942 C104.235,236.484 104.524,238.026 104.887,239.967 C110.509,238.939 116.017,237.932 121.698,236.893 C121.847,237.762 121.977,238.522 122.137,239.457 C120.785,239.757 119.505,240.041 117.941,240.388 C119.143,252.443 120.343,264.465 121.566,276.728 C120.033,277.07 118.511,277.409 116.767,277.799 C116.089,276.231 115.393,274.74 114.792,273.212 C111.002,263.577 107.175,253.955 103.504,244.274 C102.724,242.217 102.357,239.949 102.17,237.747 C102.092,236.822 102.979,235.816 103.428,234.847 C103.601,234.879 103.774,234.911 103.947,234.942" id="Fill-9" fill="#000000"></path>
            <path d="M169.708,260.287 C169.827,261.14 169.924,261.996 170.073,262.844 C170.208,263.615 170.401,264.376 170.629,265.424 C176.084,264.448 181.461,263.486 187.121,262.473 C187.309,263.162 187.526,263.962 187.801,264.971 C186.441,265.282 185.232,265.558 183.599,265.931 C184.828,277.629 186.063,289.391 187.313,301.285 C186.081,301.545 184.937,301.958 183.79,301.964 C183.145,301.968 182.126,301.455 181.903,300.915 C177.618,290.545 173.376,280.156 169.262,269.717 C168.485,267.743 168.088,265.553 167.921,263.431 C167.837,262.359 168.662,261.216 169.076,260.105 C169.287,260.166 169.497,260.227 169.708,260.287" id="Fill-10" fill="#000000"></path>
            <path d="M107.744,127.085 C112.798,125.966 117.838,124.85 122.896,123.731 C124.886,128.254 125,128.312 130.218,127.45 C130.454,127.411 130.697,127.411 130.933,127.369 C135.732,126.509 136.765,125.177 135.712,120.352 C135.324,118.57 135.916,117.955 137.205,116.973 C140.676,114.327 144.02,111.495 147.247,108.553 C149.18,106.791 151.066,105.38 153.815,106.252 C159.29,107.988 160.566,111.937 156.804,116.513 C152.622,121.598 147.223,125.117 140.999,127.301 C130.553,130.967 120.046,132.094 109.439,127.927 C108.993,127.752 108.542,127.59 108.104,127.398 C107.971,127.34 107.874,127.201 107.744,127.085" id="Fill-11" fill="#000000"></path>
            <path d="M134.01,121.999 C131.606,121.226 129.203,120.453 126.508,119.587 C126.198,120.624 125.921,121.552 125.565,122.74 C128.025,123.455 130.288,124.113 132.551,124.77 C132.466,124.866 132.39,125.037 132.274,125.07 C125.41,126.982 125.488,126.941 124.194,119.976 C121.674,106.421 119.021,92.891 116.423,79.351 C115.342,73.721 114.262,68.091 113.207,62.589 C116.296,61.965 119.282,61.362 122.473,60.718 C123.765,67.25 125.121,74.105 126.535,81.253 C123.839,80.449 121.371,79.712 118.696,78.914 C118.425,79.937 118.173,80.892 117.969,81.663 C120.943,84.144 125.658,82.761 127.763,86.356 C127.65,86.619 127.536,86.882 127.423,87.145 C125.001,86.354 122.579,85.564 119.92,84.697 C119.603,85.644 119.289,86.584 118.976,87.519 C122.219,88.815 125.344,90.041 128.43,91.356 C128.631,91.441 128.537,92.219 128.598,92.855 C125.98,92.083 123.567,91.372 120.922,90.593 C120.676,91.51 120.418,92.471 120.074,93.751 C122.652,94.508 125.057,95.283 127.501,95.907 C128.986,96.286 130.014,96.849 129.592,98.919 C127.145,98.055 124.729,97.202 122.083,96.267 C121.794,97.29 121.522,98.25 121.266,99.152 C124.321,101.396 128.95,100.405 131.124,103.894 C131.012,104.134 130.9,104.373 130.788,104.613 C128.276,103.833 125.764,103.052 123.132,102.235 C122.827,103.253 122.581,104.072 122.328,104.911 C125.188,107.386 130.042,106.165 132.26,109.601 C132.117,109.886 131.975,110.171 131.832,110.457 C129.395,109.689 126.958,108.922 124.555,108.165 C123.105,110.857 123.147,110.997 125.623,111.791 C127.52,112.399 129.475,112.868 131.297,113.649 C132.149,114.014 132.747,114.972 133.461,115.661 C133.295,115.852 133.129,116.043 132.963,116.234 C130.558,115.474 128.152,114.714 125.77,113.961 C124.101,116.402 124.21,116.82 126.729,117.626 C128.552,118.209 130.437,118.635 132.197,119.366 C133.104,119.743 133.798,120.632 134.589,121.29 C134.396,121.526 134.203,121.763 134.01,121.999" id="Fill-12" fill="#000000"></path>
            <path d="M98.914,129.135 C90.038,123.895 87.744,115.418 87.281,105.912 C86.557,91.047 98.743,80.079 109.977,76.38 C111.191,75.98 112.556,76.036 113.856,76.035 C94.452,84.769 91.112,95.921 93.12,110.879 C94.464,120.886 104.643,131.302 124.55,132.134 C115.576,134.815 107.014,133.916 98.914,129.135 Z" id="Fill-13" fill="#000000"></path>
            <path d="M121.754,59.778 C118.978,60.333 116.201,60.888 113.425,61.443 C114.815,59.25 117.574,58.618 121.583,58.919 C121.64,59.205 121.697,59.492 121.754,59.778" id="Fill-14" fill="#1A1918"></path>
            <path d="M143.537,170.942 C141.132,170.275 139.155,169.733 137.182,169.177 C127.665,166.496 118.141,163.841 108.65,161.074 C107.874,160.847 106.906,159.942 106.736,159.192 C105.753,154.841 104.982,150.442 104.14,146.062 C118.472,142.978 136.128,153.151 143.537,170.942" id="Fill-15" fill="#000000"></path>
            <path d="M147.379764,186.727 C143.705764,185.621 140.371271,184.597 137.025238,183.615 C129.446409,181.39 121.863733,179.182 114.280095,176.975 C110.763826,175.952 110.761902,175.961 110.08,171.563 C113.230792,172.441 116.288292,173.255 119.323671,174.145 C127.419937,176.517 135.499854,178.947 143.6067,181.274 C144.402093,181.502 145.344637,181.179 146.543016,181.086 C146.737295,182.397 147.022944,184.319 147.379764,186.727 Z" id="problem-Fill-16" stroke="#000000"></path>
            <path d="M146.451,179.09 C141.14,177.562 136.347,176.163 131.542,174.805 C124.877,172.92 118.205,171.059 111.532,169.203 C108.066,168.239 107.862,167.979 107.801,163.865 C113.338,165.41 118.818,166.934 124.296,168.47 C130.881,170.316 137.469,172.156 144.04,174.053 C144.546,174.198 145.135,174.682 145.328,175.154 C145.769,176.233 145.989,177.403 146.451,179.09" id="Fill-17"></path>
            <path d="M147.994,189.599 L147.994,193.993 C143.739,192.744 139.805,191.551 135.849,190.438 C128.802,188.455 121.728,186.569 114.693,184.547 C110.223,183.262 111.286,184.362 110.347,179.13 C122.844,182.605 135.167,186.032 147.994,189.599" id="problem-Fill-18"></path>
            <path d="M112.023,186.766 C123.902,190.071 135.749,193.368 147.893,196.747 C147.749,198.083 147.602,199.452 147.43,201.059 C141.733,199.435 136.331,197.879 130.92,196.357 C125.79,194.915 120.649,193.51 115.513,192.088 C112.122,191.149 111.876,190.783 112.023,186.766" id="Fill-19"></path>
            <path d="M113.533,194.371 C124.588,197.496 135.642,200.622 146.946,203.818 C146.534,205.151 146.171,206.324 145.749,207.689 C140.121,206.127 134.628,204.609 129.138,203.076 C124.624,201.815 120.146,200.402 115.591,199.313 C112.729,198.628 114.153,196.202 113.042,194.865 C113.206,194.7 113.37,194.536 113.533,194.371" id="Fill-20"></path>
            <path d="M114.847,201.916 C124.84,204.739 134.629,207.505 144.411,210.269 C144.043,213.893 143.625,214.228 140.242,213.289 C132.956,211.266 125.684,209.193 118.406,207.141 C114.912,206.156 114.911,206.157 114.847,201.916" id="Fill-21"></path>
            <path d="M116.309,209.439 C124.725,211.829 133.084,214.202 141.477,216.586 C139.753,220.28 139.774,220.207 136.24,219.194 C130.893,217.662 125.52,216.216 120.144,214.787 C116.345,213.777 116.335,213.817 116.309,209.439" id="Fill-22"></path>
            <path d="M117.715,216.952 C124.305,218.825 130.682,220.638 137.349,222.533 C135.518,224.53 134.353,226.349 131.278,225.052 C128.162,223.738 124.693,223.268 121.389,222.388 C117.831,221.441 117.757,221.311 117.715,216.952" id="Fill-23"></path>
            <path d="M130.908,227.821 C127.298,231.11 123.283,231.627 120.087,228.962 C119.16,228.19 119.16,226.308 118.553,224.347 C123.076,225.618 126.908,226.696 130.908,227.821" id="Fill-24" fill="#000000"></path>
            <path d="M191.341,191.283 C185.663,189.681 179.976,188.108 174.326,186.415 C173.549,186.182 172.503,185.431 172.355,184.751 C171.421,180.466 170.701,176.134 169.931,171.814 C169.879,171.524 169.994,171.203 170.029,170.921 C185.48,168.04 202.522,179.918 209.246,196.315 C202.976,194.553 197.157,192.923 191.341,191.283 Z" id="Fill-25" fill="#000000"></path>
            <path d="M187.9,193.234 C194.491,195.094 201.081,196.961 207.681,198.791 C211.282,199.79 211.291,199.758 211.831,204.101 C208.301,203.18 204.847,202.331 201.423,201.374 C193.445,199.146 185.52,196.71 177.491,194.687 C174.509,193.935 173.064,192.618 173.386,189.115 C178.303,190.511 183.1,191.879 187.9,193.234 Z" id="Fill-26" fill="#000000"></path>
            <path d="M187.233,200.218 C194.977,202.367 202.712,204.55 210.472,206.642 C211.068,206.802 211.83,206.352 212.709,206.139 C212.95,207.62 213.25,209.458 213.607,211.642 C209.576,210.6 205.891,209.69 202.23,208.692 C193.863,206.412 185.525,204.017 177.135,201.823 C174.279,201.076 175.29,198.831 174.462,196.711 C179.024,197.963 183.132,199.08 187.233,200.218 Z" id="Fill-27" fill="#000000"></path>
            <path d="M213.91,214.784 L213.91,218.847 C210.09,217.833 206.434,216.89 202.794,215.891 C195.122,213.787 187.465,211.627 179.787,209.544 C176.339,208.608 176.095,208.333 176.313,204.354 C188.77,207.81 201.211,211.261 213.91,214.784 Z" id="Fill-28" fill="#000000"></path>
            <path d="M187.452,218.808 C185.381,218.225 183.315,217.624 181.242,217.048 C177.72,216.068 177.719,216.073 177.65,211.939 C184.489,213.803 191.267,215.641 198.04,217.5 C202.172,218.635 206.289,219.824 210.424,220.951 C214.052,221.939 214.059,221.916 213.087,226.012 C204.424,223.578 195.938,221.194 187.452,218.808 Z" id="Fill-29" fill="#000000"></path>
            <path d="M211.648,232.768 C207.999,231.801 204.47,230.916 200.971,229.929 C194.918,228.22 188.892,226.413 182.836,224.713 C179.154,223.679 179.139,223.734 178.968,219.406 C190.167,222.527 201.327,225.636 212.769,228.824 C212.366,230.239 212.046,231.366 211.648,232.768 Z" id="Fill-30" fill="#000000"></path>
            <path d="M210.14,236.854 C209.781,237.638 209.354,238.391 208.877,239.308 C202.248,237.425 195.698,235.566 189.149,233.702 C187.468,233.224 185.795,232.717 184.113,232.241 C180.383,231.186 180.382,231.191 180.477,226.929 C190.499,229.791 200.45,232.631 210.457,235.488 C210.322,236.093 210.299,236.505 210.14,236.854 Z" id="Fill-31" fill="#000000"></path>
            <path d="M207.276,241.667 C205.817,245.475 205.53,245.58 201.881,244.504 C196.54,242.929 191.19,241.382 185.824,239.897 C181.967,238.83 181.952,238.883 181.843,234.612 C190.442,236.997 198.849,239.329 207.276,241.667 Z" id="Fill-32" fill="#000000"></path>
            <path d="M196.025,250.203 C193.177,249.037 190.098,248.429 187.111,247.612 C183.459,246.613 183.455,246.629 183.228,242.26 C189.825,244.096 196.304,245.899 202.903,247.735 C201.128,250.93 199.026,251.431 196.025,250.203 Z" id="Fill-33" fill="#000000"></path>
            <path d="M184.764,249.981 C188.59,251.047 192.416,252.112 196.78,253.328 C193.382,255.649 190.607,257.468 186.765,255.76 C184.088,254.57 185.419,252.067 184.339,250.409 C184.48,250.267 184.622,250.124 184.764,249.981" id="Fill-34" fill="#000000"></path>
            <text id="The-Peter-Westbrook" font-family="Lato-Bold, Lato" font-size="24" font-weight="bold" fill="#000000">
                <tspan x="2.754" y="24">The Peter Westbrook </tspan>
                <tspan x="56.634" y="53">Foundation</tspan>
            </text>
        </g>
    </g>
</svg>