<?xml version="1.0" encoding="UTF-8"?>
<svg width="166px" height="337px" viewBox="0 0 166 337" version="1.1" xmlns="http://www.w3.org/2000/svg" xmlns:xlink="http://www.w3.org/1999/xlink">
    <!-- Generator: Sketch 42 (36781) - http://www.bohemiancoding.com/sketch -->
    <title>logo-black</title>
    <desc>Created with Sketch.</desc>
    <defs></defs>
    <g id="logo-black" stroke="none" stroke-width="1" fill="none" fill-rule="evenodd">
        <g>
            <path d="M82.908,169.821 C78.908,168.696 75.076,167.618 70.553,166.347 C71.16,168.308 71.16,170.19 72.087,170.962 C75.283,173.627 79.298,173.11 82.908,169.821 Z M69.715,158.952 C69.757,163.311 69.831,163.441 73.389,164.388 C76.693,165.268 80.162,165.738 83.278,167.052 C86.353,168.349 87.518,166.53 89.349,164.533 C82.682,162.638 76.305,160.825 69.715,158.952 Z M68.309,151.439 C68.335,155.817 68.345,155.777 72.144,156.787 C77.52,158.216 82.893,159.662 88.24,161.194 C91.774,162.207 91.753,162.28 93.477,158.586 C85.084,156.202 76.725,153.829 68.309,151.439 Z M66.847,143.916 C66.911,148.157 66.912,148.156 70.406,149.141 C77.684,151.193 84.956,153.266 92.242,155.289 C95.625,156.228 96.043,155.893 96.411,152.269 C86.629,149.505 76.84,146.739 66.847,143.916 Z M65.533,136.371 C65.37,136.536 65.206,136.7 65.042,136.865 C66.153,138.202 64.729,140.628 67.591,141.313 C72.146,142.402 76.624,143.815 81.138,145.076 C86.628,146.609 92.121,148.127 97.749,149.689 C98.171,148.324 98.534,147.151 98.946,145.818 C87.642,142.622 76.588,139.496 65.533,136.371 Z M64.023,128.766 C63.876,132.783 64.122,133.149 67.513,134.088 C72.649,135.51 77.79,136.915 82.92,138.357 C88.331,139.879 93.733,141.435 99.43,143.059 C99.602,141.452 99.749,140.083 99.893,138.747 C87.749,135.368 75.902,132.071 64.023,128.766 Z M98.451,121.09 C97.989,119.403 97.769,118.233 97.328,117.154 C97.135,116.682 96.546,116.198 96.04,116.053 C89.469,114.156 82.881,112.316 76.296,110.47 C70.818,108.934 65.338,107.41 59.801,105.865 C59.862,109.979 60.066,110.239 63.532,111.203 C70.205,113.059 76.877,114.92 83.542,116.805 C88.347,118.163 93.14,119.562 98.451,121.09 Z M99.994,131.599 C87.167,128.032 74.844,124.605 62.347,121.13 C63.286,126.362 62.223,125.262 66.693,126.547 C73.728,128.569 80.802,130.455 87.849,132.438 C91.805,133.551 95.739,134.744 99.994,135.993 L99.994,131.599 Z M98.992,123.086 C97.746,123.179 96.766,123.502 95.939,123.274 C87.51,120.947 79.109,118.517 70.691,116.145 C67.535,115.255 64.356,114.441 61.08,113.563 C61.789,117.961 61.791,117.952 65.447,118.975 C73.332,121.182 81.216,123.39 89.096,125.615 C92.575,126.597 96.042,127.621 99.862,128.727 C99.491,126.319 99.194,124.397 98.992,123.086 Z M95.537,112.942 C88.128,95.151 70.472,84.978 56.14,88.062 C56.982,92.442 57.753,96.841 58.736,101.192 C58.906,101.942 59.874,102.847 60.65,103.074 C70.141,105.841 79.665,108.496 89.182,111.177 C91.155,111.733 93.132,112.275 95.537,112.942 Z M82.586,93.754 C81.241,87.125 80.008,81.05 78.715,74.677 C81.735,74.093 84.735,73.512 87.981,72.883 C88.689,76.907 89.396,80.88 90.085,84.856 C91.257,91.614 92.144,98.439 93.697,105.108 C94.493,108.528 96.431,111.691 97.978,114.91 C98.132,115.231 99.192,115.311 99.772,115.199 C102.572,114.66 105.351,114.016 108.449,113.341 C111.536,133.954 114.578,154.261 117.644,174.731 C114.305,175.531 111.064,176.308 107.587,177.141 C105.562,165.216 103.56,153.419 101.472,141.121 C99.633,144.875 100.829,148.146 101.362,151.324 C105.11,173.674 108.916,196.015 112.801,218.341 C115.194,232.095 117.803,245.81 120.235,259.557 C123.681,279.028 127.047,298.514 130.463,317.99 C131.331,322.942 132.28,327.881 133.15,332.833 C133.363,334.049 133.411,335.294 133.536,336.526 C133.249,336.544 132.963,336.562 132.676,336.58 C120.324,277.323 107.973,218.066 95.547,158.452 C89.859,167.837 82.217,174.289 71.3,176.346 C65.744,146.495 60.216,116.793 54.618,86.718 C64.991,84.81 74.025,87.414 82.586,93.754 Z" id="Fill-4" fill="#000000"></path>
            <path d="M10.527,140.519 C9.377,139.743 8.395,139.445 8.081,138.814 C4.076,130.762 1.03,122.344 0.257,113.355 C-0.035,109.961 0.553,106.308 1.571,103.032 C2.688,99.434 5.522,97.12 9.538,96.728 C12.873,96.403 16.212,96.113 19.534,95.684 C20.265,95.59 20.97,95.037 21.614,94.591 C22.678,93.853 23.576,92.613 24.732,92.314 C29.977,90.956 35.285,89.84 40.579,88.676 C41.171,88.545 41.817,88.658 42.568,88.658 C45.713,109.052 48.84,129.33 52.006,149.856 C46.972,150.883 42.242,151.942 37.473,152.781 C35.172,153.185 33.402,151.67 32.783,148.977 C31.085,141.595 29.459,134.196 27.815,126.802 C25.982,118.557 24.125,110.317 22.366,102.056 C22.02,100.432 21.266,100.108 19.712,100.179 C8.863,100.677 5.823,107.226 6.949,117.971 C7.331,121.611 8.174,125.201 8.756,128.822 C9.336,132.43 9.853,136.048 10.527,140.519" id="Fill-5" fill="#000000"></path>
            <path d="M136.764,191.981 C136.622,192.124 136.48,192.267 136.339,192.409 C137.419,194.067 136.088,196.57 138.765,197.76 C142.607,199.468 145.382,197.649 148.78,195.328 C144.416,194.112 140.59,193.047 136.764,191.981 Z M154.903,189.735 C148.304,187.899 141.825,186.096 135.228,184.26 C135.455,188.629 135.459,188.613 139.111,189.612 C142.098,190.429 145.177,191.037 148.025,192.203 C151.026,193.431 153.128,192.93 154.903,189.735 Z M133.843,176.612 C133.952,180.883 133.967,180.83 137.824,181.897 C143.19,183.382 148.54,184.929 153.881,186.504 C157.53,187.58 157.817,187.475 159.276,183.667 C150.849,181.329 142.442,178.997 133.843,176.612 Z M162.457,177.488 C152.45,174.631 142.499,171.791 132.477,168.929 C132.382,173.191 132.383,173.186 136.113,174.241 C137.795,174.717 139.468,175.224 141.149,175.702 C147.698,177.566 154.248,179.425 160.877,181.308 C161.354,180.391 161.781,179.638 162.14,178.854 C162.299,178.505 162.322,178.093 162.457,177.488 Z M164.769,170.824 C153.327,167.636 142.167,164.527 130.968,161.406 C131.139,165.734 131.154,165.679 134.836,166.713 C140.892,168.413 146.918,170.22 152.971,171.929 C156.47,172.916 159.999,173.801 163.648,174.768 C164.046,173.366 164.366,172.239 164.769,170.824 Z M165.087,169.012 C166.059,164.916 166.052,164.939 162.424,163.951 C158.289,162.824 154.172,161.635 150.04,160.5 C143.267,158.641 136.489,156.803 129.65,154.939 C129.719,159.073 129.72,159.068 133.242,160.048 C135.315,160.624 137.381,161.225 139.452,161.808 C147.938,164.194 156.424,166.578 165.087,169.012 Z M128.313,146.354 C128.095,150.333 128.339,150.608 131.787,151.544 C139.465,153.627 147.122,155.787 154.794,157.891 C158.434,158.89 162.09,159.833 165.91,160.847 L165.91,156.784 C153.211,153.261 140.77,149.81 128.313,146.354 Z M126.462,138.711 C127.29,140.831 126.279,143.076 129.135,143.823 C137.525,146.017 145.863,148.412 154.23,150.692 C157.891,151.69 161.576,152.6 165.607,153.642 C165.25,151.458 164.95,149.62 164.709,148.139 C163.83,148.352 163.068,148.802 162.472,148.642 C154.712,146.55 146.977,144.367 139.233,142.218 C135.132,141.08 131.024,139.963 126.462,138.711 Z M125.386,131.115 C125.064,134.618 126.509,135.935 129.491,136.687 C137.52,138.71 145.445,141.146 153.423,143.374 C156.847,144.331 160.301,145.18 163.831,146.101 C163.291,141.758 163.282,141.79 159.681,140.791 C153.081,138.961 146.491,137.094 139.9,135.234 C135.1,133.879 130.303,132.511 125.386,131.115 Z M161.246,138.315 C154.522,121.918 137.48,110.04 122.029,112.921 C121.994,113.203 121.879,113.524 121.931,113.814 C122.701,118.134 123.421,122.466 124.355,126.751 C124.503,127.431 125.549,128.182 126.326,128.415 C131.976,130.108 137.663,131.681 143.341,133.283 C149.157,134.923 154.976,136.553 161.246,138.315 Z" id="Fill-6" fill="#1A1919"></path>
            <path d="M44.224,87.116 C47.01,86.601 49.717,86.101 52.577,85.572 C58.267,116.147 63.923,146.531 69.612,177.097 C65.954,177.799 62.383,178.484 58.393,179.249 C53.693,148.692 48.986,118.086 44.224,87.116" id="Fill-7" fill="#000000"></path>
            <path d="M110.088,112.154 C112.872,111.596 115.501,111.07 118.217,110.526 C123.89,141.217 129.525,171.694 135.203,202.411 C131.546,203.2 127.868,203.993 123.998,204.828 C119.357,173.908 114.743,143.168 110.088,112.154" id="Fill-8" fill="#000000"></path>
            <path d="M55.947,176.942 C56.235,178.484 56.524,180.026 56.887,181.967 C62.509,180.939 68.017,179.932 73.698,178.893 C73.847,179.762 73.977,180.522 74.137,181.457 C72.785,181.757 71.505,182.041 69.941,182.388 C71.143,194.443 72.343,206.465 73.566,218.728 C72.033,219.07 70.511,219.409 68.767,219.799 C68.089,218.231 67.393,216.74 66.792,215.212 C63.002,205.577 59.175,195.955 55.504,186.274 C54.724,184.217 54.357,181.949 54.17,179.747 C54.092,178.822 54.979,177.816 55.428,176.847 C55.601,176.879 55.774,176.911 55.947,176.942" id="Fill-9" fill="#000000"></path>
            <path d="M121.708,202.287 C121.827,203.14 121.924,203.996 122.073,204.844 C122.208,205.615 122.401,206.376 122.629,207.424 C128.084,206.448 133.461,205.486 139.121,204.473 C139.309,205.162 139.526,205.962 139.801,206.971 C138.441,207.282 137.232,207.558 135.599,207.931 C136.828,219.629 138.063,231.391 139.313,243.285 C138.081,243.545 136.937,243.958 135.79,243.964 C135.145,243.968 134.126,243.455 133.903,242.915 C129.618,232.545 125.376,222.156 121.262,211.717 C120.485,209.743 120.088,207.553 119.921,205.431 C119.837,204.359 120.662,203.216 121.076,202.105 C121.287,202.166 121.497,202.227 121.708,202.287" id="Fill-10" fill="#000000"></path>
            <path d="M59.744,69.085 C64.798,67.966 69.838,66.85 74.896,65.731 C76.886,70.254 77,70.312 82.218,69.45 C82.454,69.411 82.697,69.411 82.933,69.369 C87.732,68.509 88.765,67.177 87.712,62.352 C87.324,60.57 87.916,59.955 89.205,58.973 C92.676,56.327 96.02,53.495 99.247,50.553 C101.18,48.791 103.066,47.38 105.815,48.252 C111.29,49.988 112.566,53.937 108.804,58.513 C104.622,63.598 99.223,67.117 92.999,69.301 C82.553,72.967 72.046,74.094 61.439,69.927 C60.993,69.752 60.542,69.59 60.104,69.398 C59.971,69.34 59.874,69.201 59.744,69.085" id="Fill-11" fill="#000000"></path>
            <path d="M86.01,63.999 C83.606,63.226 81.203,62.453 78.508,61.587 C78.198,62.624 77.921,63.552 77.565,64.74 C80.025,65.455 82.288,66.113 84.551,66.77 C84.466,66.866 84.39,67.037 84.274,67.07 C77.41,68.982 77.488,68.941 76.194,61.976 C73.674,48.421 71.021,34.891 68.423,21.351 C67.342,15.721 66.262,10.091 65.207,4.589 C68.296,3.965 71.282,3.362 74.473,2.718 C75.765,9.25 77.121,16.105 78.535,23.253 C75.839,22.449 73.371,21.712 70.696,20.914 C70.425,21.937 70.173,22.892 69.969,23.663 C72.943,26.144 77.658,24.761 79.763,28.356 C79.65,28.619 79.536,28.882 79.423,29.145 C77.001,28.354 74.579,27.564 71.92,26.697 C71.603,27.644 71.289,28.584 70.976,29.519 C74.219,30.815 77.344,32.041 80.43,33.356 C80.631,33.441 80.537,34.219 80.598,34.855 C77.98,34.083 75.567,33.372 72.922,32.593 C72.676,33.51 72.418,34.471 72.074,35.751 C74.652,36.508 77.057,37.283 79.501,37.907 C80.986,38.286 82.014,38.849 81.592,40.919 C79.145,40.055 76.729,39.202 74.083,38.267 C73.794,39.29 73.522,40.25 73.266,41.152 C76.321,43.396 80.95,42.405 83.124,45.894 C83.012,46.134 82.9,46.373 82.788,46.613 C80.276,45.833 77.764,45.052 75.132,44.235 C74.827,45.253 74.581,46.072 74.328,46.911 C77.188,49.386 82.042,48.165 84.26,51.601 C84.117,51.886 83.975,52.171 83.832,52.457 C81.395,51.689 78.958,50.922 76.555,50.165 C75.105,52.857 75.147,52.997 77.623,53.791 C79.52,54.399 81.475,54.868 83.297,55.649 C84.149,56.014 84.747,56.972 85.461,57.661 C85.295,57.852 85.129,58.043 84.963,58.234 C82.558,57.474 80.152,56.714 77.77,55.961 C76.101,58.402 76.21,58.82 78.729,59.626 C80.552,60.209 82.437,60.635 84.197,61.366 C85.104,61.743 85.798,62.632 86.589,63.29 C86.396,63.526 86.203,63.763 86.01,63.999" id="Fill-12" fill="#000000"></path>
            <path d="M50.914,71.135 C42.038,65.895 39.744,57.418 39.281,47.912 C38.557,33.047 50.743,22.079 61.977,18.38 C63.191,17.98 64.556,18.036 65.856,18.035 C46.452,26.769 43.112,37.921 45.12,52.879 C46.464,62.886 56.643,73.302 76.55,74.134 C67.576,76.815 59.014,75.916 50.914,71.135 Z" id="Fill-13" fill="#000000"></path>
            <path d="M73.754,1.778 C70.978,2.333 68.201,2.888 65.425,3.443 C66.815,1.25 69.574,0.618 73.583,0.919 C73.64,1.205 73.697,1.492 73.754,1.778" id="Fill-14" fill="#1A1918"></path>
            <path d="M95.537,112.942 C93.132,112.275 91.155,111.733 89.182,111.177 C79.665,108.496 70.141,105.841 60.65,103.074 C59.874,102.847 58.906,101.942 58.736,101.192 C57.753,96.841 56.982,92.442 56.14,88.062 C70.472,84.978 88.128,95.151 95.537,112.942" id="Fill-15" fill="#000000"></path>
            <path d="M99.3797645,128.727 C95.7057636,127.621 92.3712713,126.597 89.0252375,125.615 C81.4464086,123.39 73.8637325,121.182 66.2800947,118.975 C62.7638258,117.952 62.7619022,117.961 62.08,113.563 C65.2307923,114.441 68.288292,115.255 71.3236707,116.145 C79.4199374,118.517 87.4998539,120.947 95.6067003,123.274 C96.4020926,123.502 97.3446373,123.179 98.5430156,123.086 C98.7372952,124.397 99.022944,126.319 99.3797645,128.727 Z" id="problem-Fill-16" stroke="#000000"></path>
            <path d="M98.451,121.09 C93.14,119.562 88.347,118.163 83.542,116.805 C76.877,114.92 70.205,113.059 63.532,111.203 C60.066,110.239 59.862,109.979 59.801,105.865 C65.338,107.41 70.818,108.934 76.296,110.47 C82.881,112.316 89.469,114.156 96.04,116.053 C96.546,116.198 97.135,116.682 97.328,117.154 C97.769,118.233 97.989,119.403 98.451,121.09" id="Fill-17"></path>
            <path d="M99.994,131.599 L99.994,135.993 C95.739,134.744 91.805,133.551 87.849,132.438 C80.802,130.455 73.728,128.569 66.693,126.547 C62.223,125.262 63.286,126.362 62.347,121.13 C74.844,124.605 87.167,128.032 99.994,131.599" id="problem-Fill-18"></path>
            <path d="M64.023,128.766 C75.902,132.071 87.749,135.368 99.893,138.747 C99.749,140.083 99.602,141.452 99.43,143.059 C93.733,141.435 88.331,139.879 82.92,138.357 C77.79,136.915 72.649,135.51 67.513,134.088 C64.122,133.149 63.876,132.783 64.023,128.766" id="Fill-19"></path>
            <path d="M65.533,136.371 C76.588,139.496 87.642,142.622 98.946,145.818 C98.534,147.151 98.171,148.324 97.749,149.689 C92.121,148.127 86.628,146.609 81.138,145.076 C76.624,143.815 72.146,142.402 67.591,141.313 C64.729,140.628 66.153,138.202 65.042,136.865 C65.206,136.7 65.37,136.536 65.533,136.371" id="Fill-20"></path>
            <path d="M66.847,143.916 C76.84,146.739 86.629,149.505 96.411,152.269 C96.043,155.893 95.625,156.228 92.242,155.289 C84.956,153.266 77.684,151.193 70.406,149.141 C66.912,148.156 66.911,148.157 66.847,143.916" id="Fill-21"></path>
            <path d="M68.309,151.439 C76.725,153.829 85.084,156.202 93.477,158.586 C91.753,162.28 91.774,162.207 88.24,161.194 C82.893,159.662 77.52,158.216 72.144,156.787 C68.345,155.777 68.335,155.817 68.309,151.439" id="Fill-22"></path>
            <path d="M69.715,158.952 C76.305,160.825 82.682,162.638 89.349,164.533 C87.518,166.53 86.353,168.349 83.278,167.052 C80.162,165.738 76.693,165.268 73.389,164.388 C69.831,163.441 69.757,163.311 69.715,158.952" id="Fill-23"></path>
            <path d="M82.908,169.821 C79.298,173.11 75.283,173.627 72.087,170.962 C71.16,170.19 71.16,168.308 70.553,166.347 C75.076,167.618 78.908,168.696 82.908,169.821" id="Fill-24" fill="#000000"></path>
            <path d="M143.341,133.283 C137.663,131.681 131.976,130.108 126.326,128.415 C125.549,128.182 124.503,127.431 124.355,126.751 C123.421,122.466 122.701,118.134 121.931,113.814 C121.879,113.524 121.994,113.203 122.029,112.921 C137.48,110.04 154.522,121.918 161.246,138.315 C154.976,136.553 149.157,134.923 143.341,133.283 Z" id="Fill-25" fill="#000000"></path>
            <path d="M139.9,135.234 C146.491,137.094 153.081,138.961 159.681,140.791 C163.282,141.79 163.291,141.758 163.831,146.101 C160.301,145.18 156.847,144.331 153.423,143.374 C145.445,141.146 137.52,138.71 129.491,136.687 C126.509,135.935 125.064,134.618 125.386,131.115 C130.303,132.511 135.1,133.879 139.9,135.234 Z" id="Fill-26" fill="#000000"></path>
            <path d="M139.233,142.218 C146.977,144.367 154.712,146.55 162.472,148.642 C163.068,148.802 163.83,148.352 164.709,148.139 C164.95,149.62 165.25,151.458 165.607,153.642 C161.576,152.6 157.891,151.69 154.23,150.692 C145.863,148.412 137.525,146.017 129.135,143.823 C126.279,143.076 127.29,140.831 126.462,138.711 C131.024,139.963 135.132,141.08 139.233,142.218 Z" id="Fill-27" fill="#000000"></path>
            <path d="M165.91,156.784 L165.91,160.847 C162.09,159.833 158.434,158.89 154.794,157.891 C147.122,155.787 139.465,153.627 131.787,151.544 C128.339,150.608 128.095,150.333 128.313,146.354 C140.77,149.81 153.211,153.261 165.91,156.784 Z" id="Fill-28" fill="#000000"></path>
            <path d="M139.452,160.808 C137.381,160.225 135.315,159.624 133.242,159.048 C129.72,158.068 129.719,158.073 129.65,153.939 C136.489,155.803 143.267,157.641 150.04,159.5 C154.172,160.635 158.289,161.824 162.424,162.951 C166.052,163.939 166.059,163.916 165.087,168.012 C156.424,165.578 147.938,163.194 139.452,160.808 Z" id="Fill-29" fill="#000000"></path>
            <path d="M163.648,174.768 C159.999,173.801 156.47,172.916 152.971,171.929 C146.918,170.22 140.892,168.413 134.836,166.713 C131.154,165.679 131.139,165.734 130.968,161.406 C142.167,164.527 153.327,167.636 164.769,170.824 C164.366,172.239 164.046,173.366 163.648,174.768 Z" id="Fill-30" fill="#000000"></path>
            <path d="M162.14,178.854 C161.781,179.638 161.354,180.391 160.877,181.308 C154.248,179.425 147.698,177.566 141.149,175.702 C139.468,175.224 137.795,174.717 136.113,174.241 C132.383,173.186 132.382,173.191 132.477,168.929 C142.499,171.791 152.45,174.631 162.457,177.488 C162.322,178.093 162.299,178.505 162.14,178.854 Z" id="Fill-31" fill="#000000"></path>
            <path d="M159.276,183.667 C157.817,187.475 157.53,187.58 153.881,186.504 C148.54,184.929 143.19,183.382 137.824,181.897 C133.967,180.83 133.952,180.883 133.843,176.612 C142.442,178.997 150.849,181.329 159.276,183.667 Z" id="Fill-32" fill="#000000"></path>
            <path d="M148.025,192.203 C145.177,191.037 142.098,190.429 139.111,189.612 C135.459,188.613 135.455,188.629 135.228,184.26 C141.825,186.096 148.304,187.899 154.903,189.735 C153.128,192.93 151.026,193.431 148.025,192.203 Z" id="Fill-33" fill="#000000"></path>
            <path d="M136.764,191.981 C140.59,193.047 144.416,194.112 148.78,195.328 C145.382,197.649 142.607,199.468 138.765,197.76 C136.088,196.57 137.419,194.067 136.339,192.409 C136.48,192.267 136.622,192.124 136.764,191.981" id="Fill-34" fill="#000000"></path>
        </g>
    </g>
</svg>